<svg xmlns="http://www.w3.org/2000/svg" viewBox="0 0 43.1 41.84">
  <title>github_logo</title>
  <g id="Layer_2" data-name="Layer 2">
    <g id="Layer_1-2" data-name="Layer 1">
      <path d="M10.8,2.9a21.56,21.56,0,0,1,21.6,0,20.86,20.86,0,0,1,7.8,7.8,21.31,21.31,0,0,1,2.9,10.8A20.88,20.88,0,0,1,39,34.1a20.54,20.54,0,0,1-10.6,7.7,1.13,1.13,0,0,1-1.5-1V34.9a5.06,5.06,0,0,0-1.5-4,21.76,21.76,0,0,0,2.9-.5,11.2,11.2,0,0,0,2.6-1.1,7.1,7.1,0,0,0,2.3-1.9,8.74,8.74,0,0,0,1.5-2.9,13.3,13.3,0,0,0,.6-4.2,8,8,0,0,0-2.2-5.7,7.56,7.56,0,0,0-.2-5.7,3.37,3.37,0,0,0-2.3.3c-1,.4-1.8.8-2.6,1.2l-1.1.7a19,19,0,0,0-5.4-.7,20,20,0,0,0-5.4.7c-.3-.2-.7-.5-1.2-.8a16.92,16.92,0,0,0-2.3-1.1,4.87,4.87,0,0,0-2.4-.4,7.56,7.56,0,0,0-.2,5.7,8.81,8.81,0,0,0-2.1,5.8,13.3,13.3,0,0,0,.6,4.2A8.74,8.74,0,0,0,10,27.4a8.17,8.17,0,0,0,2.2,1.9,11.2,11.2,0,0,0,2.6,1.1,19.24,19.24,0,0,0,2.9.5,5,5,0,0,0-1.4,2.9,5,5,0,0,1-1.3.4,7.59,7.59,0,0,1-1.6.1,3.23,3.23,0,0,1-1.8-.6A5,5,0,0,1,10.1,32a5,5,0,0,0-1.4-1.5,3.65,3.65,0,0,0-1.4-.7l-.6-.1c-.4,0-.7,0-.8.1s-.2.2-.1.3.1.3.3.4a1.38,1.38,0,0,0,.4.3l.2.1A3,3,0,0,1,7.9,32a8,8,0,0,1,.9,1.4l.3.6a3.53,3.53,0,0,0,1.2,1.7,4.55,4.55,0,0,0,1.9.8,13.66,13.66,0,0,0,1.9.2,6.62,6.62,0,0,0,1.5-.1l.6-.1v4a.91.91,0,0,1-.4.8,1.23,1.23,0,0,1-1.1.2A21.38,21.38,0,0,1,4.1,33.8,20.25,20.25,0,0,1,0,21.2,21.31,21.31,0,0,1,2.9,10.4,23.68,23.68,0,0,1,10.8,2.9ZM8.2,30.8c.1-.1,0-.2-.2-.3s-.3,0-.4.1,0,.2.2.3S8.2,31,8.2,30.8Zm.9,1c.1-.1.1-.2-.1-.4s-.3-.2-.4-.1-.1.2.1.4A.25.25,0,0,0,9.1,31.8ZM9.9,33c.2-.1.2-.3,0-.5a.37.37,0,0,0-.5-.2c-.2.1-.2.3,0,.5S9.8,33.1,9.9,33Zm1.2,1.2c.1-.1.1-.3-.1-.5s-.4-.3-.6-.1-.1.3.1.5S11,34.3,11.1,34.2Zm1.6.7c.1-.2-.1-.4-.4-.4s-.5,0-.5.2,0,.3.4.4A.37.37,0,0,0,12.7,34.9Zm1.8.1c0-.2-.2-.3-.5-.3s-.4.1-.4.3.2.3.5.3S14.5,35.2,14.5,35Zm1.6-.3c0-.2-.2-.3-.5-.3s-.4.2-.4.4.2.3.5.2C16,35.1,16.1,34.9,16.1,34.7Z" fill="#fff"/>
    </g>
  </g>
</svg>
